<?xml version="1.0" standalone="no"?>
<!DOCTYPE svg PUBLIC "-//W3C//DTD SVG 20010904//EN"
 "http://www.w3.org/TR/2001/REC-SVG-20010904/DTD/svg10.dtd">
<svg version="1.0" xmlns="http://www.w3.org/2000/svg"
 width="500.000000pt" height="500.000000pt" viewBox="0 0 500.000000 500.000000"
 preserveAspectRatio="xMidYMid meet">
<metadata>
Created by potrace 1.11, written by Peter Selinger 2001-2013
</metadata>
<g transform="translate(0.000000,500.000000) scale(0.100000,-0.100000)"
fill="#000000" stroke="none">
<path d="M1133 4823 c-33 -17 -47 -33 -63 -72 -11 -28 -14 -203 -14 -1006 -1
-536 -4 -977 -8 -981 -4 -4 -94 -6 -200 -5 -106 1 -197 1 -203 1 -5 0 -58 0
-116 -1 -58 -1 -111 1 -118 5 -6 4 -11 3 -11 -3 0 -6 -7 -8 -15 -4 -27 10 -90
-66 -94 -113 -2 -21 -3 -477 -4 -1011 l0 -973 -34 -37 c-68 -76 -203 -302
-242 -406 l-10 -25 367 -2 c412 -2 1070 -6 2437 -15 512 -3 1213 -8 1559 -10
l628 -3 -23 25 c-51 56 -246 216 -343 281 -84 57 -247 147 -297 164 -9 3 -12
78 -11 334 1 323 1 459 1 499 0 11 0 47 0 80 -1 121 1 187 7 196 3 5 2 9 -3 9
-8 0 -7 125 1 147 3 7 1 15 -5 18 -5 4 -7 11 -4 16 4 5 6 30 5 56 -1 47 -1 89
0 156 0 17 0 68 -1 112 0 44 0 85 2 90 1 6 0 15 -1 20 -1 6 -2 278 -2 605 0
574 -1 597 -20 638 -11 23 -32 48 -47 56 -21 10 -138 13 -576 12 l-549 -1 -32
-31 c-17 -18 -34 -46 -38 -64 -3 -18 -6 -126 -6 -241 l0 -209 -50 -1 c-27 0
-169 0 -315 0 -146 0 -280 0 -298 0 l-32 1 0 795 c0 722 -1 798 -17 834 -34
79 -2 76 -627 76 -417 0 -560 -3 -578 -12z"/>
</g>
</svg>
